<svg xmlns="http://www.w3.org/2000/svg" xmlns:xlink="http://www.w3.org/1999/xlink" width="482" height="477" viewBox="0 0 482 477">
  <defs>
    <clipPath id="clip-Simpule-logo_3">
      <rect width="482" height="477"/>
    </clipPath>
  </defs>
  <g id="Simpule-logo_3" data-name="Simpule-logo – 3" clip-path="url(#clip-Simpule-logo_3)">
    <path id="Subtraction_8" data-name="Subtraction 8" d="M-7124.276,476.073c-8.448,0-16.971-.375-25.33-1.113-8.393-.74-16.874-1.864-25.208-3.342s-16.769-3.348-25.085-5.568-16.718-4.845-24.964-7.8-16.461-6.32-24.442-10.025c-7.955-3.693-15.871-7.815-23.529-12.253s-15.258-9.3-22.615-14.48c-6.881-4.842-13.729-10.086-20.354-15.586l-.013-.072-.714-.536-.032-.027c-.188-.156-.388-.322-.583-.487v.053L-7320,402.7V90.105c1.128,43.707,14.654,81.732,40.2,113.021,26.728,32.722,67.881,60.813,122.316,83.5,21.333,8.729,41.539,17.436,60.056,25.879,9.218,4.206,17.945,8.559,25.941,12.94,7.979,4.374,15.434,8.891,22.157,13.425a149.594,149.594,0,0,1,18.128,14.283,108.8,108.8,0,0,1,13.853,15.5,60.694,60.694,0,0,1,8.789,17.212,63.536,63.536,0,0,1,2.93,19.409,57.885,57.885,0,0,1-1.832,14.586,56.084,56.084,0,0,1-5.493,13.49,57.437,57.437,0,0,1-9.217,12.084,75.464,75.464,0,0,1-13,10.376,100.633,100.633,0,0,1-16.723,8.484,148.831,148.831,0,0,1-20.386,6.41,183.056,183.056,0,0,1-24.106,4.027A273.241,273.241,0,0,1-7124.276,476.073Zm287.277-70.2h0l-2.966-.237c.239-4.718.361-9.6.361-14.522,0-28.177-4.271-53.23-12.694-74.464a174.936,174.936,0,0,0-36.625-56.885c-15.874-16.521-35.176-31.552-57.373-44.676a617.842,617.842,0,0,0-75.439-37.355c-20.407-8.42-38.971-16.716-55.177-24.657s-30.179-16.159-41.5-24.415a127.922,127.922,0,0,1-15.135-12.815,89.735,89.735,0,0,1-11.23-13.552,54.421,54.421,0,0,1-6.957-14.831,58.9,58.9,0,0,1-2.318-16.664,55.732,55.732,0,0,1,2.072-15.318,51.871,51.871,0,0,1,6.224-13.732,64.993,64.993,0,0,1,10.014-12.025,81.006,81.006,0,0,1,13.427-10.192,105.143,105.143,0,0,1,16.844-8.239,151.459,151.459,0,0,1,20.265-6.165,189.1,189.1,0,0,1,23.191-3.845A247.35,247.35,0,0,1-7036.386,0a311.3,311.3,0,0,1,41.259,2.93,327.212,327.212,0,0,1,43.7,9.035,304.519,304.519,0,0,1,42.723,15.38A238.554,238.554,0,0,1-6872.91,47.09l.007.107.005,0,.011.005c.342.189.708.4.9.513l.015.007c.577.392,1.117.763,1.605,1.1V48.7c6.427,4,22.541,15.256,33.371,33.4Z" transform="translate(7320 0)" fill="#088178"/>
  </g>
</svg>
